<?xml version="1.0" standalone="yes"?>
<svg xmlns="http://www.w3.org/2000/svg" width="640" height="360">
<path style="fill:#ffffff; stroke:none;" d="M0 0L0 360L640 360L640 0L0 0z"/>
<path style="fill:#000000; stroke:none;" d="M154 350C155.227 355.724 174.685 353 180 353L251 353C258.244 353 272.064 351.679 270 341C274.965 336.662 272 319.436 272 313L272 230L272 69C272 53.4193 278.008 23.4654 264.671 12.2245C259.513 7.87759 251.266 9 245 9L201 9C187.76 9 164.829 4.61813 153.004 11.1396C145.451 15.3051 146 22.517 146 30L146 76L146 276L146 332C146 338.69 145.114 349.084 154 350M309 17C302.729 19.5209 305 29.3017 305 35L305 88L305 282L305 328C305 333.807 303.2 341.802 309 345L308 348L309 350C329.27 353.969 350.032 353 371 353C376.794 353 388.526 355.358 392 350L395 351C407.567 332.915 401 298.675 401 277L401 95L401 41C401 34.3729 402.904 24.1519 399.698 18.1698C394.813 9.05792 386.163 9 377 9L331 9C324.113 9 309.853 7.37933 309 17M431 16L432 18C426.443 21.5021 428 30.201 428 36L428 88L428 277L428 323C428 327.74 426.219 336.696 430 340L429 343L432 344L431 347L432 349C435.471 349.455 437.749 351.934 441.09 352.701C448.124 354.315 456.795 353 464 353C468.571 353 474.26 354.227 477 350L479 351C487.336 340.209 486 330.181 486 317L486 269L486 95L486 44C486 36.3604 487.675 26.3485 484.982 19.0903C478.494 1.60419 441.732 7.31018 431 16z"/>
</svg>
