<?xml version="1.0" standalone="no"?>
<!DOCTYPE svg PUBLIC "-//W3C//DTD SVG 20010904//EN"
 "http://www.w3.org/TR/2001/REC-SVG-20010904/DTD/svg10.dtd">
<svg version="1.0" xmlns="http://www.w3.org/2000/svg"
 width="712.000000pt" height="860.000000pt" viewBox="0 0 712.000000 860.000000"
 preserveAspectRatio="xMidYMid meet">

<g transform="translate(0.000000,860.000000) scale(0.100000,-0.100000)"
fill="#000000" stroke="none">
<path d="M3525 8579 c-179 -17 -383 -72 -520 -142 -97 -48 -175 -105 -256
-186 -217 -217 -323 -510 -349 -960 -9 -162 -4 -346 21 -749 32 -525 -118
-993 -446 -1392 -411 -501 -740 -1059 -893 -1516 -94 -282 -126 -480 -120
-736 l5 -178 -25 -22 c-13 -13 -71 -85 -129 -160 -57 -75 -118 -149 -136 -164
-40 -34 -123 -73 -261 -124 -128 -47 -190 -84 -251 -152 -115 -128 -130 -234
-80 -574 22 -152 20 -213 -14 -318 -109 -339 -66 -529 142 -631 92 -45 193
-66 502 -105 381 -48 453 -66 678 -171 260 -121 445 -174 646 -186 308 -17
566 97 682 302 l30 53 67 7 c37 4 153 22 257 41 400 72 563 80 853 39 235 -32
366 -45 471 -45 l88 0 12 -42 c20 -67 89 -177 155 -246 229 -239 569 -274 920
-94 139 71 237 150 421 337 204 207 258 245 589 412 328 165 417 225 468 320
91 166 38 332 -194 605 -65 77 -85 124 -137 337 -22 86 -49 181 -60 212 -41
108 -106 179 -236 254 -16 10 -15 18 14 135 39 159 51 260 51 432 0 355 -91
685 -301 1098 -135 266 -284 487 -554 825 -306 381 -402 518 -491 700 -60 125
-96 227 -121 353 -15 73 -17 132 -15 362 2 315 -11 643 -34 822 -85 672 -357
1066 -830 1203 -169 49 -394 65 -619 44z m538 -1208 c117 -57 223 -198 262
-351 22 -85 22 -254 0 -335 -18 -66 -79 -198 -101 -216 -10 -9 -34 -3 -103 25
-49 20 -94 36 -100 36 -16 0 -15 2 23 59 85 126 66 343 -39 440 -39 36 -51 41
-91 41 -60 0 -104 -27 -142 -88 -43 -68 -56 -116 -56 -209 -1 -51 -5 -81 -11
-79 -5 3 -54 19 -107 37 -95 31 -98 32 -104 66 -9 48 3 179 22 244 51 173 167
306 304 350 14 5 63 7 110 6 66 -2 96 -7 133 -26z m-1108 -75 c66 -31 130
-101 170 -189 38 -83 52 -145 61 -260 l7 -83 -72 -28 c-39 -15 -73 -32 -77
-37 -3 -5 -11 -9 -17 -9 -8 0 -13 24 -14 69 -3 93 -33 170 -83 215 -88 79
-167 20 -194 -146 -14 -79 31 -239 78 -277 9 -8 16 -16 16 -20 0 -4 -23 -24
-52 -45 l-52 -39 -32 37 c-38 43 -76 120 -101 203 -27 92 -25 287 5 378 31 91
61 143 113 189 78 71 155 84 244 42z m545 -601 c69 -18 175 -66 303 -138 42
-24 121 -59 175 -77 151 -51 273 -113 315 -159 143 -158 -11 -397 -333 -516
-41 -16 -104 -46 -140 -68 -217 -134 -280 -162 -401 -178 -100 -14 -203 1
-285 41 -33 16 -102 66 -154 110 -51 44 -139 112 -196 151 -117 80 -165 129
-201 207 -30 63 -28 137 4 180 10 15 78 72 150 127 72 55 168 133 214 173 91
79 209 144 294 161 65 13 173 7 255 -14z m960 -1075 c141 -431 292 -796 500
-1210 70 -140 151 -309 180 -375 70 -162 162 -442 196 -596 l27 -126 56 -7
c31 -3 73 -9 93 -12 l37 -6 20 68 c123 414 -37 943 -408 1347 -39 42 -71 84
-71 92 0 34 25 21 96 -52 269 -274 475 -665 534 -1008 28 -165 26 -353 -5
-476 -6 -24 -1 -28 97 -77 208 -103 350 -216 398 -316 27 -56 36 -134 23 -186
-8 -30 -14 -35 -43 -38 l-33 -3 6 44 c9 64 -15 135 -63 190 -76 86 -258 189
-448 255 -97 33 -117 36 -217 37 -127 0 -165 -14 -228 -84 -34 -38 -67 -118
-67 -165 0 -31 -9 -40 -77 -75 -82 -44 -171 -138 -217 -229 -74 -147 -116
-363 -136 -702 -13 -217 -27 -302 -82 -503 l-41 -147 -94 -61 c-199 -129 -459
-235 -687 -281 -94 -20 -142 -23 -316 -23 -186 1 -215 3 -318 28 -222 52 -467
171 -526 256 -17 24 -72 98 -123 165 l-92 121 64 12 c329 62 292 381 -87 749
-119 115 -207 184 -403 314 -77 51 -169 116 -204 144 -127 102 -235 268 -283
433 -20 69 -23 100 -23 263 0 175 2 192 32 312 68 267 187 533 392 873 54 90
67 106 69 85 3 -16 -37 -105 -117 -265 -131 -260 -174 -365 -214 -520 -41
-160 -50 -240 -44 -397 7 -199 46 -330 140 -477 l34 -53 7 98 c10 146 33 293
67 434 64 267 112 396 294 790 334 725 463 1094 512 1470 8 63 16 116 17 117
6 7 168 -110 251 -182 148 -128 261 -175 419 -175 137 1 260 45 449 162 54 33
145 80 202 103 138 56 204 97 279 172 l61 61 18 -61 c9 -34 53 -172 97 -307z
m740 -3138 c45 -95 110 -165 185 -202 72 -36 189 -40 287 -10 135 41 260 113
360 208 l57 54 118 -4 c94 -3 128 -8 166 -26 130 -58 174 -133 242 -407 52
-208 88 -289 171 -385 122 -140 194 -277 194 -366 0 -119 -78 -183 -419 -350
-349 -170 -420 -219 -661 -464 -128 -129 -199 -193 -263 -235 -105 -69 -234
-126 -334 -149 -93 -21 -252 -21 -324 0 -143 42 -266 144 -337 282 -94 181
-81 341 72 871 74 255 93 354 106 566 32 531 94 736 255 850 l50 36 18 -93
c11 -57 33 -125 57 -176z m-3775 209 c56 -26 88 -51 160 -125 88 -91 93 -99
274 -432 217 -398 238 -431 432 -675 242 -305 335 -449 385 -599 23 -70 23
-185 0 -265 -67 -226 -228 -344 -506 -370 -183 -17 -468 48 -678 154 -244 123
-405 165 -812 211 -102 12 -218 28 -259 36 -294 60 -352 187 -246 533 43 139
46 229 14 438 -38 254 -17 359 90 455 51 46 75 58 256 123 181 66 215 93 360
285 115 151 184 221 248 251 67 32 191 23 282 -20z"/>
<path d="M3143 6567 c-41 -15 -57 -32 -50 -51 9 -22 41 -20 98 6 50 23 61 41
33 52 -22 8 -44 6 -81 -7z"/>
<path d="M3457 6569 c-14 -8 -16 -14 -6 -25 6 -8 19 -14 28 -14 9 0 25 -7 35
-15 22 -17 72 -20 80 -6 12 18 -6 40 -45 55 -46 18 -67 20 -92 5z"/>
<path d="M4050 6207 c-125 -121 -344 -251 -541 -319 -87 -31 -103 -33 -219
-33 -116 1 -131 3 -201 31 -130 52 -266 157 -387 299 -25 30 -42 25 -42 -11 0
-31 59 -96 163 -180 135 -109 250 -163 393 -184 149 -22 290 13 519 128 234
116 438 277 410 322 -12 20 -31 9 -95 -53z"/>
</g>
</svg>
